<svg height="512" viewBox="0 0 74 74" width="512" xmlns="http://www.w3.org/2000/svg"><g id="Numbers"><text fill="#f00" font-family="ArialMT, Arial" font-size="18" transform="translate(31.995 -638.544)">3<tspan x="-5.005" y="124">13</tspan><tspan x="-5.005" y="248">23</tspan><tspan x="-5.005" y="372">33</tspan><tspan x="-5.005" y="496">43</tspan><tspan x="-5.005" y="620">53</tspan><tspan x="-5.005" y="744">63</tspan><tspan x="-5.005" y="868">73</tspan><tspan x="-5.005" y="992">83</tspan><tspan x="-5.005" y="1116">93</tspan><tspan x="-10.011" y="1240">103</tspan><tspan letter-spacing="-.074em" x="-9.343" y="1364">1</tspan><tspan x="-.668" y="1364">13</tspan><tspan x="-10.011" y="1488">123</tspan><tspan x="-10.011" y="1612">133</tspan><tspan x="-10.011" y="1736">143</tspan><tspan x="-10.011" y="1860">153</tspan><tspan x="-10.011" y="1984">163</tspan><tspan x="-10.011" y="2108">173</tspan><tspan x="-10.011" y="2232">183</tspan><tspan x="-10.011" y="2356">193</tspan><tspan x="-10.011" y="2480">203</tspan><tspan x="-10.011" y="2604">213</tspan><tspan x="-10.011" y="2728">223</tspan><tspan x="-10.011" y="2852">233</tspan><tspan x="-10.011" y="2976">243</tspan><tspan x="-10.011" y="3100">253</tspan><tspan x="-10.011" y="3224">263</tspan><tspan x="-10.011" y="3348">273</tspan><tspan x="-10.011" y="3472">283</tspan><tspan x="-10.011" y="3596">293</tspan></text></g><g id="Layer_5" data-name="Layer 5"><path d="m9.087 20.383a.515.515 0 0 1 -.087-.007.5.5 0 0 1 -.407-.578 5.628 5.628 0 0 1 .261-.97 5.482 5.482 0 0 1 2.893-3.123l1.153-.53-.117-1.29a5.546 5.546 0 0 1 .435-2.705.5.5 0 0 1 .917.4 4.531 4.531 0 0 0 -.355 2.22l.148 1.641a.5.5 0 0 1 -.289.5l-1.475.679a4.491 4.491 0 0 0 -2.371 2.558 4.6 4.6 0 0 0 -.214.8.5.5 0 0 1 -.492.405z" fill="#323c6b"/><path d="m10.2 24.862a.5.5 0 0 1 -.453-.287l-.7-1.483a.5.5 0 1 1 .9-.427l.7 1.483a.5.5 0 0 1 -.239.666.5.5 0 0 1 -.208.048z" fill="#323c6b"/><path d="m61.2 32.17a2.013 2.013 0 0 0 -.4 2.3l.99 2.1a2.042 2.042 0 0 1 -.99 2.72l-2.11.97a2.021 2.021 0 0 0 -1.17 2.02l.21 2.32a2.039 2.039 0 0 1 -1.85 2.21l-2.32.19a2.015 2.015 0 0 0 -1.79 1.51l-.33 1.22v.02l-.26 1a2.037 2.037 0 0 1 -2.5 1.45l-2.24-.61a2.015 2.015 0 0 0 -2.2.8l-1.33 1.91a2.028 2.028 0 0 1 -2.84.5l-.24-.17-1.66-1.17a2.013 2.013 0 0 0 -2.34 0l-1.66 1.17-.24.17a2.028 2.028 0 0 1 -2.84-.5l-1.33-1.91a2.015 2.015 0 0 0 -2.2-.8l-2.24.61a2.037 2.037 0 0 1 -2.5-1.45l-.26-1v-.02l-.33-1.22a2.015 2.015 0 0 0 -1.79-1.51l-2.32-.19a2.039 2.039 0 0 1 -1.85-2.21l.21-2.32a2.021 2.021 0 0 0 -1.17-2.02l-2.11-.97a2.042 2.042 0 0 1 -.99-2.72l.99-2.1a2.013 2.013 0 0 0 -.4-2.3l-1.66-1.64a2.04 2.04 0 0 1 0-2.89l1.66-1.63a2.028 2.028 0 0 0 .4-2.31l-.99-2.1a2.028 2.028 0 0 1 .99-2.71l2.11-.97a2.034 2.034 0 0 0 1.17-2.03l-.21-2.32a2.039 2.039 0 0 1 1.85-2.21l2.32-.19a2 2 0 0 0 1.79-1.51l.59-2.24a2.044 2.044 0 0 1 2.5-1.45l2.24.61a2.015 2.015 0 0 0 2.2-.8l1.33-1.91a2.037 2.037 0 0 1 2.84-.5l1.9 1.34a2.013 2.013 0 0 0 2.34 0l1.9-1.34a2.037 2.037 0 0 1 2.84.5l1.33 1.91a2.015 2.015 0 0 0 2.2.8l2.24-.61a2.044 2.044 0 0 1 2.5 1.45l.59 2.24a2 2 0 0 0 1.79 1.51l2.32.19a2.039 2.039 0 0 1 1.85 2.21l-.21 2.32a2.034 2.034 0 0 0 1.17 2.03l2.11.97a2.028 2.028 0 0 1 .99 2.71l-.99 2.1a2.031 2.031 0 0 0 .4 2.31l1.66 1.63a2.04 2.04 0 0 1 0 2.89z" fill="#f4bb87"/><path d="m41.239 55.674a2.515 2.515 0 0 1 -1.458-.466l-1.9-1.339a1.514 1.514 0 0 0 -1.761 0l-1.9 1.341a2.528 2.528 0 0 1 -3.542-.624l-1.328-1.91a1.521 1.521 0 0 0 -1.656-.6l-2.242.611a2.537 2.537 0 0 1 -3.115-1.805l-.26-1a.491.491 0 0 1 -.013-.066l-.316-1.169a1.515 1.515 0 0 0 -1.348-1.147l-2.32-.19a2.54 2.54 0 0 1 -2.307-2.753l.21-2.321a1.522 1.522 0 0 0 -.882-1.521l-2.109-.97a2.542 2.542 0 0 1 -1.234-3.387l.991-2.1a1.508 1.508 0 0 0 -.3-1.73l-1.661-1.641a2.539 2.539 0 0 1 0-3.6l1.663-1.633a1.535 1.535 0 0 0 .3-1.739l-.991-2.1a2.527 2.527 0 0 1 1.235-3.378l2.108-.969a1.529 1.529 0 0 0 .881-1.529l-.21-2.322a2.54 2.54 0 0 1 2.3-2.753l2.323-.19a1.508 1.508 0 0 0 1.346-1.132l.591-2.247a2.548 2.548 0 0 1 3.112-1.806l2.243.611a1.521 1.521 0 0 0 1.657-.6l1.334-1.916a2.536 2.536 0 0 1 3.539-.623l1.9 1.339a1.514 1.514 0 0 0 1.761 0l1.9-1.342a2.537 2.537 0 0 1 3.539.623l1.33 1.91a1.52 1.52 0 0 0 1.656.6l2.242-.611a2.549 2.549 0 0 1 3.115 1.8l.59 2.241a1.509 1.509 0 0 0 1.348 1.15l2.32.19a2.54 2.54 0 0 1 2.307 2.753l-.21 2.321a1.529 1.529 0 0 0 .881 1.531l2.109.97a2.527 2.527 0 0 1 1.234 3.377l-.991 2.1a1.529 1.529 0 0 0 .3 1.743l1.657 1.627a2.539 2.539 0 0 1 0 3.6l-1.662 1.642a1.507 1.507 0 0 0 -.3 1.727l.992 2.1a2.542 2.542 0 0 1 -1.231 3.387l-2.112.971a1.523 1.523 0 0 0 -.881 1.519l.21 2.322a2.54 2.54 0 0 1 -2.3 2.753l-2.323.196a1.512 1.512 0 0 0 -1.346 1.134l-.32 1.185a.508.508 0 0 1 -.011.059l-.26 1a2.537 2.537 0 0 1 -3.112 1.808l-2.243-.611a1.523 1.523 0 0 0 -1.657.6l-1.331 1.91a2.5 2.5 0 0 1 -1.631 1.048 2.612 2.612 0 0 1 -.45.041zm-4.239-3.089a2.509 2.509 0 0 1 1.461.468l1.9 1.339a1.528 1.528 0 0 0 1.155.257 1.5 1.5 0 0 0 .984-.633l1.33-1.916a2.515 2.515 0 0 1 2.743-1l2.238.61a1.537 1.537 0 0 0 1.885-1.1l.249-.957a.455.455 0 0 1 .012-.066l.33-1.22a2.51 2.51 0 0 1 2.233-1.867l2.319-.19a1.538 1.538 0 0 0 1.393-1.667l-.21-2.32a2.524 2.524 0 0 1 1.458-2.519l2.111-.97a1.542 1.542 0 0 0 .747-2.053l-.99-2.1a2.5 2.5 0 0 1 .5-2.869l1.66-1.64a1.54 1.54 0 0 0 0-2.181l-1.658-1.625a2.53 2.53 0 0 1 -.5-2.882l.989-2.1a1.527 1.527 0 0 0 -.746-2.042l-2.111-.971a2.529 2.529 0 0 1 -1.458-2.531l.209-2.318a1.539 1.539 0 0 0 -1.4-1.667l-2.316-.189a2.507 2.507 0 0 1 -2.234-1.887l-.583-2.232a1.545 1.545 0 0 0 -1.888-1.094l-2.237.609a2.514 2.514 0 0 1 -2.743-1l-1.332-1.906a1.537 1.537 0 0 0 -2.142-.377l-1.9 1.34a2.511 2.511 0 0 1 -2.918 0l-1.9-1.338a1.536 1.536 0 0 0 -2.142.377l-1.328 1.907a2.519 2.519 0 0 1 -2.743 1l-2.238-.61a1.546 1.546 0 0 0 -1.885 1.1l-.59 2.239a2.5 2.5 0 0 1 -2.233 1.881l-2.319.19a1.538 1.538 0 0 0 -1.393 1.667l.21 2.32a2.53 2.53 0 0 1 -1.458 2.529l-2.11.97a1.527 1.527 0 0 0 -.747 2.043l.99 2.1a2.538 2.538 0 0 1 -.5 2.876l-1.663 1.63a1.54 1.54 0 0 0 0 2.18l1.658 1.638a2.505 2.505 0 0 1 .5 2.872l-.989 2.1a1.543 1.543 0 0 0 .749 2.054l2.108.969a2.523 2.523 0 0 1 1.458 2.521l-.209 2.318a1.539 1.539 0 0 0 1.4 1.667l2.316.189a2.514 2.514 0 0 1 2.234 1.886l.328 1.212a.487.487 0 0 1 .015.074l.247.951a1.537 1.537 0 0 0 1.888 1.092l2.237-.609a2.517 2.517 0 0 1 2.743 1l1.326 1.9a1.529 1.529 0 0 0 2.142.377l1.9-1.34a2.506 2.506 0 0 1 1.458-.466z" fill="#323c6b"/><g fill="#e6b17d"><path d="m24.56 51.59-.984.268a2.033 2.033 0 0 0 1.744.342l1-.272a2.012 2.012 0 0 0 -1.76-.338z"/><path d="m32.83 4.71a2.013 2.013 0 0 0 2.34 0l.33-.233-1.57-1.107a2.033 2.033 0 0 0 -2.633.259z"/><path d="m39.91 3.87 1.33 1.91a2.015 2.015 0 0 0 2.2.8l1.242-.338a2.022 2.022 0 0 1 -.442-.462l-1.33-1.91a2.037 2.037 0 0 0 -2.84-.5l-.367.259a2 2 0 0 1 .207.241z"/><path d="m24.56 6.58a2.012 2.012 0 0 0 1.758-.338l-1-.272a2.031 2.031 0 0 0 -1.74.343z"/><path d="m62.86 30.53a2.04 2.04 0 0 0 0-2.89l-1.66-1.63a2.031 2.031 0 0 1 -.4-2.31l.99-2.1a2.028 2.028 0 0 0 -.99-2.71l-2.11-.97a2.034 2.034 0 0 1 -1.17-2.03l.21-2.32a2.039 2.039 0 0 0 -1.85-2.21l-2.32-.19a2 2 0 0 1 -1.79-1.51l-.59-2.24a2.044 2.044 0 0 0 -2.5-1.45l-1.26.343a2.025 2.025 0 0 1 .76 1.107l.59 2.24a2 2 0 0 0 1.79 1.51l2.32.19a2.039 2.039 0 0 1 1.85 2.21l-.21 2.32a2.034 2.034 0 0 0 1.17 2.03l2.11.97a2.028 2.028 0 0 1 .99 2.71l-.99 2.1a2.031 2.031 0 0 0 .4 2.31l1.66 1.63a2.04 2.04 0 0 1 0 2.89l-1.66 1.64a2.013 2.013 0 0 0 -.4 2.3l.99 2.1a2.042 2.042 0 0 1 -.99 2.72l-2.11.97a2.021 2.021 0 0 0 -1.17 2.02l.21 2.32a2.039 2.039 0 0 1 -1.85 2.21l-2.32.19a2.015 2.015 0 0 0 -1.79 1.51l-.33 1.22v.02l-.26 1a2.018 2.018 0 0 1 -.756 1.108l1.256.342a2.037 2.037 0 0 0 2.5-1.45l.26-1v-.02l.33-1.22a2.015 2.015 0 0 1 1.79-1.51l2.32-.19a2.039 2.039 0 0 0 1.85-2.21l-.21-2.32a2.021 2.021 0 0 1 1.17-2.02l2.11-.97a2.042 2.042 0 0 0 .99-2.72l-.99-2.1a2.013 2.013 0 0 1 .4-2.3z"/><path d="m35.17 53.46a2.013 2.013 0 0 0 -2.34 0l-1.53 1.082a2.025 2.025 0 0 0 2.635.258l.24-.17 1.33-.937z"/><path d="m43.44 51.59a2.015 2.015 0 0 0 -2.2.8l-1.33 1.91a2 2 0 0 1 -.205.242l.125.088.24.17a2.028 2.028 0 0 0 2.84-.5l1.33-1.91a2.022 2.022 0 0 1 .442-.462z"/></g><path d="m60.237 63.781a.5.5 0 0 1 -.462-.31l-.3-.742a.5.5 0 0 1 .925-.38l.3.742a.5.5 0 0 1 -.272.652.492.492 0 0 1 -.191.038z" fill="#323c6b"/><path d="m58.9 60.536a.5.5 0 0 1 -.462-.31l-2.735-6.664a.5.5 0 0 1 .925-.38l2.735 6.664a.5.5 0 0 1 -.272.652.492.492 0 0 1 -.191.038z" fill="#323c6b"/><path d="m58.2 66.22-8.23-3.45-3.44 8.23-6.7-16.37.24.17a2.028 2.028 0 0 0 2.84-.5l1.33-1.91a2.015 2.015 0 0 1 2.2-.8l2.24.61a2.037 2.037 0 0 0 2.5-1.45l.26-1z" fill="#ef5261"/><path d="m46.53 71.5a.5.5 0 0 1 -.461-.311l-6.7-16.37a.5.5 0 0 1 .752-.6l.24.17a1.528 1.528 0 0 0 1.155.257 1.5 1.5 0 0 0 .984-.633l1.33-1.913a2.515 2.515 0 0 1 2.743-1l2.238.61a1.537 1.537 0 0 0 1.885-1.1l.259-1a.5.5 0 0 1 .45-.374.513.513 0 0 1 .5.309l6.76 16.47a.5.5 0 0 1 -.656.651l-7.769-3.256-3.247 7.768a.5.5 0 0 1 -.463.322zm-5.75-15.868 5.755 14.06 2.973-7.115a.5.5 0 0 1 .655-.268l7.116 2.982-5.755-14.019a2.538 2.538 0 0 1 -2.973 1.411l-2.243-.611a1.523 1.523 0 0 0 -1.657.6l-1.331 1.913a2.5 2.5 0 0 1 -1.631 1.048 2.584 2.584 0 0 1 -.909-.001z" fill="#323c6b"/><path d="m46.68 52.2a2.033 2.033 0 0 0 1.438-.153l-1.678-.457a1.991 1.991 0 0 0 -1.426.156z" fill="#e42542"/><path d="m55.784 65.207 2.416 1.013-6.76-16.47-.26 1a2.02 2.02 0 0 1 -.848 1.173z" fill="#e42542"/><path d="m40.248 54.9a1.979 1.979 0 0 1 -.178-.1l-.24-.17.163.4a2.022 2.022 0 0 0 .255-.13z" fill="#e42542"/><path d="m39.83 55.125a.5.5 0 0 1 -.5-.5v-.01a.5.5 0 1 1 .5.5z" fill="#323c6b"/><path d="m51.44 50.24a.491.491 0 0 1 -.5-.49v-.01a.5.5 0 0 1 .5-.505.5.5 0 0 1 .5.5.509.509 0 0 1 -.5.505z" fill="#323c6b"/><path d="m34.17 54.63-6.7 16.37-3.44-8.23-8.23 3.45 6.76-16.47.26 1a2.037 2.037 0 0 0 2.5 1.45l2.24-.61a2.015 2.015 0 0 1 2.2.8l1.33 1.91a2.028 2.028 0 0 0 2.84.5z" fill="#ef5261"/><path d="m27.47 71.5a.5.5 0 0 1 -.461-.307l-3.247-7.768-7.769 3.256a.5.5 0 0 1 -.656-.651l6.763-16.47a.513.513 0 0 1 .5-.309.5.5 0 0 1 .45.374l.26 1a1.537 1.537 0 0 0 1.888 1.092l2.237-.609a2.517 2.517 0 0 1 2.743 1l1.322 1.906a1.529 1.529 0 0 0 2.142.377l.239-.169a.5.5 0 0 1 .752.6l-6.7 16.37a.5.5 0 0 1 -.461.311zm-3.44-9.23a.489.489 0 0 1 .189.038.5.5 0 0 1 .272.27l2.973 7.115 5.756-14.062a2.539 2.539 0 0 1 -.909 0 2.5 2.5 0 0 1 -1.633-1.05l-1.328-1.905a1.521 1.521 0 0 0 -1.656-.6l-2.242.611a2.538 2.538 0 0 1 -2.976-1.41l-5.755 14.015 7.116-2.982a.5.5 0 0 1 .193-.04z" fill="#323c6b"/><path d="m22.56 50.245a.5.5 0 0 1 -.5-.5.508.508 0 0 1 .5-.51.491.491 0 0 1 .5.49v.01a.5.5 0 0 1 -.5.51z" fill="#323c6b"/><path d="m34.17 55.125a.5.5 0 0 1 -.5-.5v-.01a.5.5 0 1 1 .5.5z" fill="#323c6b"/><path d="m46.53 71.5a.5.5 0 0 1 -.461-.311l-6.7-16.37a.5.5 0 0 1 .752-.6l.24.17a1.528 1.528 0 0 0 1.155.257 1.5 1.5 0 0 0 .984-.633l1.33-1.913a2.515 2.515 0 0 1 2.743-1l2.238.61a1.537 1.537 0 0 0 1.885-1.1l.259-1a.5.5 0 0 1 .45-.374.513.513 0 0 1 .5.309l6.76 16.47a.5.5 0 0 1 -.656.651l-7.769-3.256-3.247 7.768a.5.5 0 0 1 -.463.322zm-5.75-15.868 5.755 14.06 2.973-7.115a.5.5 0 0 1 .655-.268l7.116 2.982-5.755-14.019a2.538 2.538 0 0 1 -2.973 1.411l-2.243-.611a1.523 1.523 0 0 0 -1.657.6l-1.331 1.913a2.5 2.5 0 0 1 -1.631 1.048 2.584 2.584 0 0 1 -.909-.001z" fill="#323c6b"/><circle cx="37" cy="29.086" fill="#fed19a" r="17.226"/><path d="m37 46.812a17.726 17.726 0 1 1 17.727-17.726 17.746 17.746 0 0 1 -17.727 17.726zm0-34.453a16.726 16.726 0 1 0 16.727 16.727 16.745 16.745 0 0 0 -16.727-16.727z" fill="#323c6b"/><path d="m41.239 55.674a2.515 2.515 0 0 1 -1.458-.466l-1.9-1.339a1.514 1.514 0 0 0 -1.761 0l-1.9 1.341a2.528 2.528 0 0 1 -3.542-.624l-1.328-1.91a1.521 1.521 0 0 0 -1.656-.6l-2.242.611a2.537 2.537 0 0 1 -3.115-1.805l-.26-1a.491.491 0 0 1 -.013-.066l-.316-1.169a1.515 1.515 0 0 0 -1.348-1.147l-2.32-.19a2.54 2.54 0 0 1 -2.307-2.753l.21-2.321a1.522 1.522 0 0 0 -.882-1.521l-2.109-.97a2.542 2.542 0 0 1 -1.234-3.387l.991-2.1a1.508 1.508 0 0 0 -.3-1.73l-1.661-1.641a2.539 2.539 0 0 1 0-3.6l1.663-1.633a1.535 1.535 0 0 0 .3-1.739l-.991-2.1a2.527 2.527 0 0 1 1.235-3.378l2.108-.969a1.529 1.529 0 0 0 .881-1.529l-.21-2.322a2.54 2.54 0 0 1 2.3-2.753l2.323-.19a1.508 1.508 0 0 0 1.346-1.132l.591-2.247a2.548 2.548 0 0 1 3.112-1.806l2.243.611a1.521 1.521 0 0 0 1.657-.6l1.334-1.916a2.536 2.536 0 0 1 3.539-.623l1.9 1.339a1.514 1.514 0 0 0 1.761 0l1.9-1.342a2.537 2.537 0 0 1 3.539.623l1.33 1.91a1.52 1.52 0 0 0 1.656.6l2.242-.611a2.549 2.549 0 0 1 3.115 1.8l.59 2.241a1.509 1.509 0 0 0 1.348 1.15l2.32.19a2.54 2.54 0 0 1 2.307 2.753l-.21 2.321a1.529 1.529 0 0 0 .881 1.531l2.109.97a2.527 2.527 0 0 1 1.234 3.377l-.991 2.1a1.529 1.529 0 0 0 .3 1.743l1.657 1.627a2.539 2.539 0 0 1 0 3.6l-1.662 1.642a1.507 1.507 0 0 0 -.3 1.727l.992 2.1a2.542 2.542 0 0 1 -1.231 3.387l-2.112.971a1.523 1.523 0 0 0 -.881 1.519l.21 2.322a2.54 2.54 0 0 1 -2.3 2.753l-2.323.196a1.512 1.512 0 0 0 -1.346 1.134l-.32 1.185a.508.508 0 0 1 -.011.059l-.26 1a2.537 2.537 0 0 1 -3.112 1.808l-2.243-.611a1.523 1.523 0 0 0 -1.657.6l-1.331 1.91a2.5 2.5 0 0 1 -1.631 1.048 2.612 2.612 0 0 1 -.45.041zm-4.239-3.089a2.509 2.509 0 0 1 1.461.468l1.9 1.339a1.528 1.528 0 0 0 1.155.257 1.5 1.5 0 0 0 .984-.633l1.33-1.916a2.515 2.515 0 0 1 2.743-1l2.238.61a1.537 1.537 0 0 0 1.885-1.1l.249-.957a.455.455 0 0 1 .012-.066l.33-1.22a2.51 2.51 0 0 1 2.233-1.867l2.319-.19a1.538 1.538 0 0 0 1.393-1.667l-.21-2.32a2.524 2.524 0 0 1 1.458-2.519l2.111-.97a1.542 1.542 0 0 0 .747-2.053l-.99-2.1a2.5 2.5 0 0 1 .5-2.869l1.66-1.64a1.54 1.54 0 0 0 0-2.181l-1.658-1.625a2.53 2.53 0 0 1 -.5-2.882l.989-2.1a1.527 1.527 0 0 0 -.746-2.042l-2.111-.971a2.529 2.529 0 0 1 -1.458-2.531l.209-2.318a1.539 1.539 0 0 0 -1.4-1.667l-2.316-.189a2.507 2.507 0 0 1 -2.234-1.887l-.583-2.232a1.545 1.545 0 0 0 -1.888-1.094l-2.237.609a2.514 2.514 0 0 1 -2.743-1l-1.332-1.906a1.537 1.537 0 0 0 -2.142-.377l-1.9 1.34a2.511 2.511 0 0 1 -2.918 0l-1.9-1.338a1.536 1.536 0 0 0 -2.142.377l-1.328 1.907a2.519 2.519 0 0 1 -2.743 1l-2.238-.61a1.546 1.546 0 0 0 -1.885 1.1l-.59 2.239a2.5 2.5 0 0 1 -2.233 1.881l-2.319.19a1.538 1.538 0 0 0 -1.393 1.667l.21 2.32a2.53 2.53 0 0 1 -1.458 2.529l-2.11.97a1.527 1.527 0 0 0 -.747 2.043l.99 2.1a2.538 2.538 0 0 1 -.5 2.876l-1.663 1.63a1.54 1.54 0 0 0 0 2.18l1.658 1.638a2.505 2.505 0 0 1 .5 2.872l-.989 2.1a1.543 1.543 0 0 0 .749 2.054l2.108.969a2.523 2.523 0 0 1 1.458 2.521l-.209 2.318a1.539 1.539 0 0 0 1.4 1.667l2.316.189a2.514 2.514 0 0 1 2.234 1.886l.328 1.212a.487.487 0 0 1 .015.074l.247.951a1.537 1.537 0 0 0 1.888 1.092l2.237-.609a2.517 2.517 0 0 1 2.743 1l1.326 1.9a1.529 1.529 0 0 0 2.142.377l1.9-1.34a2.506 2.506 0 0 1 1.458-.466z" fill="#323c6b"/><path d="m37 20.719 2.459 5.866 6.339.525-4.82 4.152 1.459 6.191-5.437-3.301-5.437 3.301 1.459-6.191-4.82-4.152 6.339-.525z" fill="#eeefee"/><path d="m42.438 37.953a.5.5 0 0 1 -.259-.073l-5.179-3.143-5.178 3.143a.5.5 0 0 1 -.746-.542l1.39-5.9-4.59-3.953a.5.5 0 0 1 .285-.877l6.037-.5 2.341-5.586a.521.521 0 0 1 .922 0l2.339 5.59 6.037.5a.5.5 0 0 1 .285.877l-4.59 3.953 1.39 5.9a.5.5 0 0 1 -.487.615zm-5.438-4.301a.5.5 0 0 1 .259.073l4.418 2.682-1.186-5.03a.5.5 0 0 1 .161-.494l3.916-3.373-5.15-.427a.5.5 0 0 1 -.418-.305l-2-4.766-2 4.766a.5.5 0 0 1 -.419.305l-5.15.427 3.916 3.373a.5.5 0 0 1 .161.494l-1.186 5.03 4.418-2.682a.5.5 0 0 1 .26-.073z" fill="#323c6b"/><path d="m35.853 16.354a.813.813 0 0 1 .422-1.527q.38.017.758.058a.813.813 0 0 1 -.176 1.616q-.326-.035-.654-.05a.808.808 0 0 1 -.35-.097z" fill="#eeefee"/><path d="m25.264 22.367a.813.813 0 0 1 -.329-1.1 12.186 12.186 0 0 1 7.276-5.933.813.813 0 0 1 .466 1.557 10.571 10.571 0 0 0 -6.311 5.147.813.813 0 0 1 -1.102.329z" fill="#eeefee"/></g></svg>